# xmcd CD database file
#
# Track frame offsets:
#	155
#	13852
#	30290
#	44292
#	64547
#	78982
#	95070
#	112665
#	126797
#	143120
#	160992
#	176380
#
# Disc length: 2548 seconds
#
# Revision: 4
# Processed by: cddbd v1.5.2PL0 Copyright (c) Steve Scherf et al.
# Submitted via: CDex 1.51
#
DISCID=8d09f20c
DTITLE=Daliah Lavi - Portrait
DYEAR=1900
DGENRE=Schlager
TTITLE0=Von Dir krieg ich nie genug - Daliah Lavi
TTITLE1=Worte wie Pfeile - Daliah Lavi
TTITLE2=Meine Art, Liebe zu Zeigen - Daliah Lavi
TTITLE3=Wer hat mein Lied so zerstört, Ma? - Daliah Lavi
TTITLE4=Karriere - Daliah Lavi
TTITLE5=Words - Daliah Lavi
TTITLE6=Du änderst die Welt - Daliah Lavi
TTITLE7=Die Songs von Gestern - Daliah Lavi
TTITLE8=Willst Du mit mir geh´n - Daliah Lavi
TTITLE9=Wär ich ein Buch - Daliah Lavi
TTITLE10=Weißt Du, was Du für mich bist - Daliah Lavi
TTITLE11=Gute Gründe, um zu gehen - Daliah Lavi
EXTD=
EXTT0=
EXTT1=
EXTT2=
EXTT3=
EXTT4=
EXTT5=
EXTT6=
EXTT7=
EXTT8=
EXTT9=
EXTT10=
EXTT11=
PLAYORDER=
